<svg id="Name-Eject" class="Name-Eject" viewBox="0 0 371 106" fill="none" xmlns="http://www.w3.org/2000/svg">
<g id="Eject-name" class="Eject-name">
<path id="Eject-T" class="Eject-T" d="M324.972 105V16.0526H297V1H370V16.0526H341.346V105H324.972Z" fill="#F7F7F7" stroke="#F7F7F7"/>
<path id="Eject-E2" class="Eject-E2" d="M138 105V1H199.63V16.0526H155.804V43.4211H192.783V58.4737H155.804V89.9474H201V105H138Z" fill="#F7F7F7" stroke="#F7F7F7"/>
<path id="Eject-J" class="Eject-J" d="M102.355 74.8947V1H119V74.8947C119 88.5789 112.758 94.0526 109.984 96.7895C107.6 99.1414 100.968 103.632 91.9516 105H76V88.5789H91.2581C92.6452 88.5789 96.334 87.0004 98.1935 85.1579C100.529 82.8435 102.355 78.3158 102.355 74.8947Z" fill="#F7F7F7" stroke="#F7F7F7"/>
<path id="Eject-C" class="Eject-C" d="M281.521 6.47368V24.2632C275.363 19.1383 268.273 16.7368 260.054 16.7368C240.876 17.4211 226.491 33.8928 224.438 49.579C222.262 66.2021 236.767 88.5789 258.918 88.5789C271.24 88.5789 278.404 84.1411 287 75.579V96.7895C276.625 101.888 269.878 105 258.918 105C248.645 105 235.632 101.153 226.727 93.3684C210.29 79.0003 206.997 62.5793 208.235 49.579C209.605 35.2109 217.138 20.1582 226.727 11.9474C237.001 3.73718 245.905 1 258.918 1C268.507 1 273.534 3.04815 281.521 6.47368Z" fill="#F7F7F7" stroke="#F7F7F7"/>
<path id="Eject-E1" class="Eject-E1" d="M1 105V1H62V16.0526H17.2667V43.4211H53.8667V58.4737H17.2667V89.9474H62V105H1Z" fill="#F7F7F7" stroke="#F7F7F7"/>
</g>
</svg>
