<svg width="414" height="663" viewBox="0 0 414 663" fill="none" xmlns="http://www.w3.org/2000/svg">
<g id="backMobile">
<g id="componetsBack">
<g id="Cometa-1">
<path id="Vector 27" d="M341.982 44.8775L112.468 190.363" stroke="url(#paint0_linear)" stroke-width="23" stroke-miterlimit="1.04853" stroke-linecap="round"/>
<ellipse id="Ellipse 11" cx="106.899" cy="193.147" rx="13.2482" ry="14.8354" transform="rotate(11.2163 106.899 193.147)" fill="url(#paint1_linear)"/>
</g>
<g id="Capacete">
<g id="Group 3">
<path id="Vector 11" d="M339.009 614.984C342.215 620.526 345.735 621.877 351.335 624.978L356.442 613.913C356.442 613.913 348.833 611.252 344.82 604.454C339.082 608.199 339.578 610.724 339.009 614.984Z" fill="#8E8488"/>
<path id="Vector 12" d="M357.85 615.34L370 619.624L357.85 628.368L353.096 626.048L357.85 615.34Z" fill="#8E8488"/>
</g>
<path id="Vector 3" d="M251.407 473.836C264.887 469.07 272.443 470.141 285.92 470.981C309.07 476.666 320.402 482.517 335.223 501.677C353.071 522.599 356.186 539.923 350.014 576.631C341.874 599.545 331.62 609.803 308.811 626.958L218.303 612.324C214.24 611.124 212.783 609.628 212.668 604.472L251.407 473.836Z" fill="#C4C4C4" stroke="black"/>
<path id="Vector 2" d="M264.267 578.577L213.021 604.454C183.44 539.934 186.629 514.626 250.18 472.926L279.762 537.887C258.434 545.169 255.053 553.441 264.267 578.577Z" fill="url(#paint2_linear)"/>
<g id="Group 1">
<path id="Vector 6" d="M336.632 500.509C354.871 523.893 357.082 540.812 351.071 574.75C345.111 589.79 340.741 598.226 327.123 613.299L309.867 625.434L219.712 613.299C215.213 609.962 213.452 607.906 212.668 603.661C299.981 606.545 334.243 591.807 336.632 500.509Z" fill="#BCB2B0"/>
<path id="Vector 5" d="M288.033 470.527C309.718 476.911 320.413 483.225 336.632 499.795C337.607 562.274 325.232 583.616 283.102 600.449C259.036 606.057 246.132 606.455 223.938 603.305C303.147 568.875 314.323 538.884 288.033 470.527Z" fill="#E4DAD1"/>
<path id="Vector 4" d="M286.976 470.884C299.669 500.099 304.384 516.518 299.654 542.627C291.715 558.168 285.747 566.569 275.002 581.532C253.109 594.767 220.768 604.732 214.429 604.732C208.09 604.732 265.142 576.178 265.142 576.178L280.285 537.987C262.281 499.065 244.012 473.19 253.872 470.884C266.23 467.995 273.633 468.779 286.976 470.884Z" fill="#F7EDE1"/>
</g>
<g id="Group 2">
<ellipse id="Ellipse 1" cx="281.65" cy="558.946" rx="24.6078" ry="24.4496" fill="#F7EDE1"/>
<path id="Ellipse 2" d="M289.724 559.481C289.724 563.486 286.538 566.617 282.75 566.617C278.962 566.617 275.776 563.486 275.776 559.481C275.776 555.477 278.962 552.346 282.75 552.346C286.538 552.346 289.724 555.477 289.724 559.481Z" fill="#F7EDE1" stroke="black" stroke-width="10"/>
</g>
<path id="Vector 1" d="M218.215 609.451C210.047 621.041 205.903 627.116 206.946 630.153L307.666 642.289C314.016 642.833 311.353 635.527 304.144 620.159C269.605 620.02 250.844 617.463 218.215 609.451Z" fill="#F0E6DC"/>
<path id="Vector 7" d="M321.831 616.651C315.492 613.082 342.582 579.823 345.074 578.103C347.566 576.383 355.541 584.12 351.413 594.522L336.622 616.651C330.003 620.067 328.17 620.22 321.831 616.651Z" fill="#E4DAD1"/>
<path id="Vector 9" d="M324.809 616.839C319.017 613.2 346.13 583.645 348.559 582.172C350.987 580.699 356.539 588.292 352.148 597.755L337.151 617.583C330.756 620.424 330.601 620.479 324.809 616.839Z" fill="#F7EDE1"/>
<path id="Vector 8" d="M323.778 616.233C332.033 603.438 337.656 595.479 347.725 581.254" stroke="black" stroke-width="2"/>
<path id="Vector 10" d="M218.283 610.885C249.324 616.246 268.668 618.009 303.901 620.688" stroke="black" stroke-width="2"/>
<g id="Group 4">
<path id="Vector 13" d="M218.662 527.87C218.341 522.023 231.824 504.718 240.135 500.45C240.135 500.45 241.11 497.748 238.794 497.785C236.478 497.822 222.275 511.753 215.097 526.855C215.844 530.763 217.175 531.005 218.662 527.87Z" fill="#F7EDE1"/>
<ellipse id="Ellipse 3" rx="1.40922" ry="1.60558" transform="matrix(0.985444 -0.169998 0.16562 0.98619 213.834 538.478)" fill="#F7EDE1"/>
</g>
</g>
<g id="M&#195;&#163;o">
<g id="Vector 19">
<path d="M33.7995 27.1211L47.6927 22C80.5093 26.1989 96.8419 30.0457 121.245 40.2897C151.659 57.1956 164.244 68.3454 176 92.2325C172.636 100.976 165.781 100.479 156.63 96.622L149.031 120.033C139.783 126.675 136.202 127.069 133.503 120.033C129.158 121.677 121.245 130.275 112.907 123.325C114.609 117.035 111.756 113.379 123.929 106.534C122.804 101.577 123.454 99.3187 117.976 96.622C116.07 108.115 112.597 108.927 103.265 103.206L103.089 102.964C94.9944 91.8563 90.4016 85.5537 74.6617 79.0639L54.2306 88.5745C34.2627 69.6633 28.6548 56.6869 33.7995 27.1211Z" fill="#F7EDE1"/>
<path d="M103.265 103.206C112.597 108.927 116.07 108.115 117.976 96.622C123.454 99.3187 122.804 101.577 123.929 106.534C111.756 113.379 114.609 117.035 112.907 123.325C121.245 130.275 129.158 121.677 133.503 120.033C136.202 127.069 139.783 126.675 149.031 120.033L156.63 96.622C165.781 100.479 172.636 100.976 176 92.2325C164.244 68.3454 151.659 57.1956 121.245 40.2897C96.8419 30.0457 80.5093 26.1989 47.6927 22L33.7995 27.1211C28.6548 56.6869 34.2627 69.6633 54.2306 88.5745L74.6617 79.0639C90.4016 85.5537 94.9944 91.8563 103.089 102.964M103.265 103.206L103.089 102.964M103.265 103.206C103.206 103.125 103.147 103.045 103.089 102.964" stroke="black"/>
</g>
<path id="Vector 21" d="M43.0625 75.7858C49.5483 63.4101 53.4232 57.7339 61.0871 51.594C75.7207 52.9545 80.5041 56.4777 91.5754 60.7131C88.1255 67.5552 89.1011 71.5134 95.0782 78.7507C103.791 88.1385 105.434 92.2907 104.431 98.352C104.431 98.352 116.356 98.69 113.051 106.117C109.746 113.544 90.54 84.8431 74.9093 77.3259L54.9242 86.9187L43.0625 75.7858Z" fill="#E4DAD1"/>
<path id="Vector 20" d="M41.3388 24.1948C30.0905 48.9827 33.7389 61.6505 58.501 81.9903M46.242 24.1948C34.906 48.8664 44.4737 60.9808 67.0817 81.9903M46.242 31.8765C69.9299 32.0625 83.2461 34.7187 107.127 42.8503M84.6525 48.703C94.7145 54.9912 106.275 69.7499 117.811 95.8905M117.811 95.8905C118.493 97.4356 117.811 91.1352 117.811 95.8905ZM117.811 95.8905C120.166 96.1494 120.794 92.0506 123.817 86.7456M128.375 71.7481C127.902 73.4276 127.254 75.2985 126.483 77.235M115.299 41.0214C109.983 47.7591 109.397 51.8286 113.204 59.6769M115.299 48.703C150.607 61.2382 161.631 71.8295 167.663 98.8168M138.591 73.9428L145.537 69.1875M138.591 73.9428C123.154 69.5182 119.582 66.3183 119.854 59.6769M138.591 73.9428C141.511 83.6891 144.485 86.7301 151.666 88.9404M151.666 88.9404L160.656 83.8193M151.666 88.9404C156.221 107.23 137.322 123.378 138.591 125.337M151.666 88.9404C157.651 95.8905 157.212 98.8168 157.212 98.8168M132.521 119.667C136.947 111.642 136.387 106.843 134.913 100.646C139.074 96.5065 136.429 90.2982 134.913 86.7456L126.483 77.235M126.483 77.235C125.218 80.4139 125.514 83.7696 123.817 86.7456M123.817 106.534C134.913 100.646 129.29 94.755 123.817 86.7456" stroke="black"/>
<path id="Vector 23" d="M123.997 86.3369C108.913 60.3718 96.6657 51.778 84.2434 45.2069C103.046 62.6871 109.265 78.2303 118.725 97.45L123.997 86.3369Z" fill="#E4DAD1"/>
</g>
<g id="Planet-blue" filter="url(#filter0_dd)">
<ellipse cx="87" cy="571.5" rx="22" ry="20.5" fill="url(#paint3_linear)"/>
</g>
<ellipse id="Planet-green" cx="317" cy="156.5" rx="22" ry="20.5" fill="url(#paint4_linear)"/>
<g id="Cometa-2">
<path id="Vector 27_2" d="M448.763 286.066L266.852 417.571" stroke="url(#paint5_linear)" stroke-width="23" stroke-miterlimit="1.04853" stroke-linecap="round"/>
<ellipse id="Ellipse 11_2" cx="262.342" cy="420.202" rx="11.7077" ry="11.2346" transform="rotate(3.33885 262.342 420.202)" fill="url(#paint6_linear)"/>
</g>
</g>
<rect id="Rectangle 906" width="414" height="677" fill="#392D40" fill-opacity="0.6"/>
</g>
<defs>
<filter id="filter0_dd" x="61" y="551" width="52" height="49" filterUnits="userSpaceOnUse" color-interpolation-filters="sRGB">
<feFlood flood-opacity="0" result="BackgroundImageFix"/>
<feColorMatrix in="SourceAlpha" type="matrix" values="0 0 0 0 0 0 0 0 0 0 0 0 0 0 0 0 0 0 127 0"/>
<feOffset dy="4"/>
<feGaussianBlur stdDeviation="2"/>
<feColorMatrix type="matrix" values="0 0 0 0 0 0 0 0 0 0 0 0 0 0 0 0 0 0 0.25 0"/>
<feBlend mode="normal" in2="BackgroundImageFix" result="effect1_dropShadow"/>
<feColorMatrix in="SourceAlpha" type="matrix" values="0 0 0 0 0 0 0 0 0 0 0 0 0 0 0 0 0 0 127 0"/>
<feOffset dy="4"/>
<feGaussianBlur stdDeviation="2"/>
<feColorMatrix type="matrix" values="0 0 0 0 0 0 0 0 0 0 0 0 0 0 0 0 0 0 0.25 0"/>
<feBlend mode="normal" in2="effect1_dropShadow" result="effect2_dropShadow"/>
<feBlend mode="normal" in="SourceGraphic" in2="effect2_dropShadow" result="shape"/>
</filter>
<linearGradient id="paint0_linear" x1="133.418" y1="139.205" x2="325.279" y2="44.5459" gradientUnits="userSpaceOnUse">
<stop stop-color="#B59167" stop-opacity="0.91"/>
<stop offset="0.308585" stop-color="#AF885B" stop-opacity="0.67"/>
<stop offset="0.5" stop-color="#AF885B" stop-opacity="0.49"/>
<stop offset="0.708333" stop-color="#AF885B" stop-opacity="0.26"/>
<stop offset="0.880208" stop-color="#AF885B" stop-opacity="0.05"/>
</linearGradient>
<linearGradient id="paint1_linear" x1="84.5666" y1="192.723" x2="124.343" y2="155.691" gradientUnits="userSpaceOnUse">
<stop stop-color="#C0A37A"/>
<stop offset="0.651042" stop-color="#AF885B"/>
</linearGradient>
<linearGradient id="paint2_linear" x1="224.697" y1="579.788" x2="251.296" y2="505.981" gradientUnits="userSpaceOnUse">
<stop stop-color="#272727"/>
<stop offset="0.307292" stop-color="#363636"/>
<stop offset="0.677083" stop-color="#3D3D3D"/>
<stop offset="1" stop-color="#504F50"/>
</linearGradient>
<linearGradient id="paint3_linear" x1="87" y1="551" x2="87" y2="592" gradientUnits="userSpaceOnUse">
<stop offset="0.140625" stop-color="#B8F0FC"/>
<stop offset="0.427083" stop-color="#BAEDF9" stop-opacity="0.69"/>
<stop offset="0.734375" stop-color="#AFE8F4" stop-opacity="0.71"/>
<stop offset="0.921875" stop-color="#C1F4FF" stop-opacity="0.92"/>
</linearGradient>
<linearGradient id="paint4_linear" x1="317" y1="136" x2="317" y2="177" gradientUnits="userSpaceOnUse">
<stop offset="0.00520833" stop-color="#B8FCC6"/>
<stop offset="1" stop-color="#B8FCC6" stop-opacity="0.8"/>
</linearGradient>
<linearGradient id="paint5_linear" x1="278.595" y1="377.1" x2="417.584" y2="266.622" gradientUnits="userSpaceOnUse">
<stop stop-color="#CA7F19" stop-opacity="0.76"/>
<stop offset="0.308585" stop-color="#C78121" stop-opacity="0.54"/>
<stop offset="0.5" stop-color="#BB8B49" stop-opacity="0.4"/>
<stop offset="0.708333" stop-color="#C48F47" stop-opacity="0.19"/>
<stop offset="0.880208" stop-color="#C48F47" stop-opacity="0"/>
</linearGradient>
<linearGradient id="paint6_linear" x1="242.606" y1="419.881" x2="272.702" y2="387.183" gradientUnits="userSpaceOnUse">
<stop stop-color="#C0A37A"/>
<stop offset="0.651042" stop-color="#C97604" stop-opacity="0.9"/>
</linearGradient>
</defs>
</svg>
